<?xml version="1.0" encoding="utf-8"?>
<svg width="900px" height="219px" viewBox="0 0 900 219" version="1.1" xmlns:xlink="http://www.w3.org/1999/xlink" xmlns="http://www.w3.org/2000/svg">
  <defs>
    <filter filterUnits="userSpaceOnUse" color-interpolation-filters="sRGB" id="filter_1">
      <feFlood flood-opacity="0" result="BackgroundImageFix" />
      <feColorMatrix in="SourceAlpha" type="matrix" values="0 0 0 0 0 0 0 0 0 0 0 0 0 0 0 0 0 0 127 0" />
      <feOffset dx="0" dy="0" />
      <feGaussianBlur stdDeviation="7.5" />
      <feColorMatrix type="matrix" values="0 0 0 0 0.039215688 0 0 0 0 0.7607843 0 0 0 0 1 0 0 0 1 0" />
      <feBlend mode="normal" in2="BackgroundImageFix" result="effect0_dropShadow" />
      <feBlend mode="normal" in="SourceGraphic" in2="effect0_dropShadow" result="shape" />
    </filter>
  </defs>
  <g id="IcebearType" fill="#FFFFFF" filter="url(#filter_1)" transform="translate(22.5 22.5)">
    <path d="M25.3636 34.6364L25.3636 139.364L12.6818 139.364L12.6818 34.6364L25.3636 34.6364ZM214.977 139.364L214.977 34.6364L227.045 34.6364L227.045 73.2954L228.068 73.2954Q229.398 71.25 231.776 68.054Q234.153 64.8579 238.628 62.3267Q243.102 59.7954 250.773 59.7954Q260.693 59.7954 268.261 64.7557Q275.83 69.7159 280.074 78.8182Q284.318 87.9205 284.318 100.295Q284.318 112.773 280.074 121.901Q275.83 131.028 268.313 136.014Q260.795 141 250.977 141Q243.409 141 238.858 138.469Q234.307 135.938 231.852 132.69Q229.398 129.443 228.068 127.295L226.636 127.295L226.636 139.364L214.977 139.364ZM517.295 45.8864L517.295 34.6364L595.841 34.6364L595.841 45.8864L562.909 45.8864L562.909 139.364L550.227 139.364L550.227 45.8864L517.295 45.8864ZM479.455 60.8182L467.795 60.8182L467.795 139.364L479.864 139.364L479.864 89.6591Q479.864 81.6818 485.489 76.4659Q491.114 71.25 499.705 71.25Q502.108 71.25 504.281 71.5824Q506.455 71.9148 507.068 72.0682L507.068 59.7954Q506.045 59.6932 504.051 59.642Q502.057 59.5909 500.727 59.5909Q493.67 59.5909 488.045 63.2216Q482.42 66.8523 480.273 72.6818L479.455 72.6818L479.455 60.8182ZM81 141Q69.9545 141 61.9773 135.784Q54 130.568 49.7045 121.415Q45.4091 112.261 45.4091 100.5Q45.4091 88.5341 49.8324 79.3551Q54.2557 70.1761 62.2074 64.9858Q70.1591 59.7955 80.7955 59.7954Q89.0795 59.7954 95.7273 62.8636Q102.375 65.9318 106.619 71.4545Q110.864 76.9773 111.886 84.3409L99.8182 84.3409Q98.4375 78.9716 93.7074 74.804Q88.9773 70.6364 81 70.6364Q70.4148 70.6364 63.946 78.6903Q57.4773 86.7443 57.4773 100.091Q57.4773 113.744 63.8693 121.952Q70.2614 130.159 81 130.159Q88.0568 130.159 93.0938 126.528Q98.1307 122.898 99.8182 116.455L111.886 116.455Q110.864 123.409 106.849 128.957Q102.835 134.506 96.2642 137.753Q89.6932 141 81 141ZM142.849 135.963Q151.057 141 162.409 141Q174.375 141 182.659 135.528Q190.943 130.057 193.705 121.159L182.045 117.886Q179.744 124.023 174.631 127.091Q169.517 130.159 162.409 130.159Q151.773 130.159 145.048 123.46Q138.324 116.761 137.915 104.182L194.932 104.182L194.932 99.0682Q194.932 88.0739 192.017 80.5568Q189.102 73.0398 184.193 68.4631Q179.284 63.8864 173.301 61.8409Q167.318 59.7954 161.182 59.7954Q150.545 59.7955 142.594 64.9858Q134.642 70.1761 130.219 79.4062Q125.795 88.6364 125.795 100.705Q125.795 112.773 130.219 121.849Q134.642 130.926 142.849 135.963ZM316.099 135.963Q324.307 141 335.659 141Q347.625 141 355.909 135.528Q364.193 130.057 366.955 121.159L355.295 117.886Q352.994 124.023 347.881 127.091Q342.767 130.159 335.659 130.159Q325.023 130.159 318.298 123.46Q311.574 116.761 311.165 104.182L368.182 104.182L368.182 99.0682Q368.182 88.0739 365.267 80.5568Q362.352 73.0398 357.443 68.4631Q352.534 63.8864 346.551 61.8409Q340.568 59.7954 334.432 59.7954Q323.795 59.7955 315.844 64.9858Q307.892 70.1761 303.469 79.4062Q299.045 88.6364 299.045 100.705Q299.045 112.773 303.469 121.849Q307.892 130.926 316.099 135.963ZM409.705 141.205Q402.239 141.205 396.153 138.366Q390.068 135.528 386.489 130.134Q382.909 124.739 382.909 117.068Q382.909 110.318 385.568 106.099Q388.227 101.881 392.676 99.4773Q397.125 97.0739 402.52 95.8722Q407.915 94.6705 413.386 93.9545Q420.545 93.0341 425.02 92.5483Q429.494 92.0625 431.565 90.8864Q433.636 89.7102 433.636 86.7954L433.636 86.3864Q433.636 78.8182 429.52 74.625Q425.403 70.4318 417.068 70.4318Q408.426 70.4318 403.517 74.2159Q398.608 78 396.614 82.2954L385.159 78.2045Q388.227 71.0454 393.366 67.0312Q398.506 63.017 404.616 61.4062Q410.727 59.7954 416.659 59.7954Q420.443 59.7954 425.378 60.6903Q430.313 61.5852 434.94 64.3466Q439.568 67.1079 442.636 72.6818Q445.705 78.2557 445.705 87.6136L445.705 139.364L433.636 139.364L433.636 128.727L433.023 128.727Q431.795 131.284 428.932 134.199Q426.068 137.114 421.313 139.159Q416.557 141.205 409.705 141.205ZM694.023 168.818L694.023 60.8182L705.682 60.8182L705.682 73.2954L707.114 73.2954Q708.443 71.25 710.821 68.054Q713.199 64.8579 717.673 62.3267Q722.148 59.7954 729.818 59.7954Q739.739 59.7954 747.307 64.7557Q754.875 69.7159 759.119 78.8182Q763.364 87.9205 763.364 100.295Q763.364 112.773 759.119 121.901Q754.875 131.028 747.358 136.014Q739.841 141 730.023 141Q722.455 141 717.903 138.469Q713.352 135.938 710.898 132.69Q708.443 129.443 707.114 127.295L706.091 127.295L706.091 168.818L694.023 168.818ZM795.145 135.963Q803.352 141 814.705 141Q826.67 141 834.955 135.528Q843.239 130.057 846 121.159L834.341 117.886Q832.04 124.023 826.926 127.091Q821.813 130.159 814.705 130.159Q804.068 130.159 797.344 123.46Q790.619 116.761 790.21 104.182L847.227 104.182L847.227 99.0682Q847.227 88.0739 844.313 80.5568Q841.398 73.0398 836.489 68.4631Q831.58 63.8864 825.597 61.8409Q819.614 59.7954 813.477 59.7954Q802.841 59.7955 794.889 64.9858Q786.938 70.1761 782.514 79.4062Q778.091 88.6364 778.091 100.705Q778.091 112.773 782.514 121.849Q786.938 130.926 795.145 135.963ZM616.142 168.332Q618.545 168.818 621.614 168.818Q638.028 168.818 644.727 150.818L678.068 60.8182L664.977 60.8182L643.295 123.409L642.477 123.409L620.795 60.8182L607.705 60.8182L636.75 139.773L634.5 145.909Q632.301 151.892 629.668 154.577Q627.034 157.261 623.659 157.568Q620.284 157.875 615.886 156.75L612.818 167.386Q613.739 167.847 616.142 168.332ZM182.659 93.75L137.915 93.75Q138.324 87.6648 141.239 82.3722Q144.153 77.0795 149.216 73.8579Q154.278 70.6364 161.182 70.6364Q171 70.6364 176.83 77.2074Q182.659 83.7784 182.659 93.75ZM226.841 100.091Q226.841 113.438 232.645 121.798Q238.449 130.159 249.341 130.159Q256.909 130.159 261.997 126.145Q267.085 122.131 269.668 115.304Q272.25 108.477 272.25 100.091Q272.25 91.8068 269.719 85.1335Q267.188 78.4602 262.099 74.5483Q257.011 70.6364 249.341 70.6364Q238.295 70.6364 232.568 78.767Q226.841 86.8977 226.841 100.091ZM355.909 93.75L311.165 93.75Q311.574 87.6648 314.489 82.3722Q317.403 77.0795 322.466 73.8579Q327.528 70.6364 334.432 70.6364Q344.25 70.6364 350.08 77.2074Q355.909 83.7784 355.909 93.75ZM705.886 100.091Q705.886 113.438 711.69 121.798Q717.494 130.159 728.386 130.159Q735.955 130.159 741.043 126.145Q746.131 122.131 748.713 115.304Q751.295 108.477 751.295 100.091Q751.295 91.8068 748.764 85.1335Q746.233 78.4602 741.145 74.5483Q736.057 70.6364 728.386 70.6364Q717.341 70.6364 711.614 78.767Q705.886 86.8977 705.886 100.091ZM834.955 93.75L790.21 93.75Q790.619 87.6648 793.534 82.3722Q796.449 77.0795 801.511 73.8579Q806.574 70.6364 813.477 70.6364Q823.295 70.6364 829.125 77.2074Q834.955 83.7784 834.955 93.75ZM411.545 130.364Q418.705 130.364 423.639 127.551Q428.574 124.739 431.105 120.29Q433.636 115.841 433.636 110.932L433.636 99.8864Q432.869 100.807 430.287 101.548Q427.705 102.29 424.355 102.827Q421.006 103.364 417.861 103.747Q414.716 104.131 412.773 104.386Q408.068 105 404.003 106.355Q399.938 107.71 397.457 110.395Q394.977 113.08 394.977 117.682Q394.977 123.972 399.656 127.168Q404.335 130.364 411.545 130.364Z" />
  </g>
</svg>